<svg id="SvgjsSvg1006" width="5000px" height="3377.9707495429616px" xmlns="http://www.w3.org/2000/svg" version="1.1" xmlns:xlink="http://www.w3.org/1999/xlink" xmlns:svgjs="http://svgjs.com/svgjs" viewBox="0 0 170.9375 115.484375"><defs id="SvgjsDefs1007"></defs><g id="SvgjsG1009" transform="rotate(0 85.46875 56.2421875)"><svg xmlns="http://www.w3.org/2000/svg" xmlns:xlink="http://www.w3.org/1999/xlink" width="170.9375" viewBox="16.049999237060547 30.450000762939453 170.9499969482422 112.5" overflow="visible" style="overflow: visible;" transform="" version="1.1" xmlns:svgjs="http://svgjs.com/svgjs" preserveAspectRatio="none" height="112.484375" x="0" y="0" fill="#000000" stroke="none"><path stroke="none" fill="#ed5b01" d="M46.35 30.45L60.15 30.45L60.15 130.95L82.65 130.95L82.65 142.95L23.85 142.95L23.85 130.95L46.35 130.95L46.35 45.00L21.90 57.15L16.05 45.45L46.35 30.45ZM171.40 142.95L129.10 142.95L113.50 126.45L113.50 46.95L129.10 30.45L171.40 30.45L187 46.95L187 126.45L171.40 142.95ZM126.55 121.35L134.95 130.05L165.40 130.05L173.95 121.35L173.95 52.05L165.55 43.35L135.10 43.35L126.55 52.05L126.55 121.35ZM142.75 95.70L142.75 77.70L157.75 77.70L157.75 95.70L142.75 95.70Z" transform="rotate(0 101.52499771118164 86.70000076293945)"></path><defs id="SvgjsDefs1008"></defs></svg></g></svg>